<svg width="100" height="100" viewBox="0 0 10 16" fill="none" xmlns="http://www.w3.org/2000/svg">
<path d="M1.11098 7.12809L1.11102 7.12805L7.14558 1.09355C7.14558 1.09355 7.14558 1.09355 7.14558 1.09355C7.62706 0.612078 8.40773 0.612014 8.88911 1.09355L1.11098 7.12809ZM1.11098 7.12809C0.870601 7.36859 0.750088 7.68446 0.750088 7.99961C0.750088 8.31455 0.870301 8.63045 1.11076 8.8711L1.11084 8.87118L7.14535 14.9055C7.62682 15.3872 8.40752 15.3873 8.88892 14.9056C9.3703 14.4242 9.37024 13.6438 8.88896 13.1623L8.88892 13.1623L3.72618 7.99962L8.88911 2.83699L8.88915 2.83694C9.37041 2.35545 9.37048 1.57496 8.88915 1.09359L1.11098 7.12809Z" fill="#000" stroke="#000" stroke-width="0.5"/>
</svg>
