<svg width="100" height="100" viewBox="0 0 10 16" fill="none" xmlns="http://www.w3.org/2000/svg">
<path d="M8.88902 8.87191L8.88898 8.87195L2.85442 14.9064C2.85442 14.9065 2.85442 14.9065 2.85442 14.9065C2.37294 15.3879 1.59227 15.388 1.11089 14.9065L8.88902 8.87191ZM8.88902 8.87191C9.1294 8.63141 9.24991 8.31554 9.24991 8.00039C9.24991 7.68545 9.1297 7.36955 8.88924 7.1289L8.88916 7.12882L2.85465 1.09446C2.37318 0.612763 1.59248 0.612683 1.11108 1.09441C0.629701 1.57576 0.629762 2.35622 1.11104 2.83769L1.11108 2.83773L6.27382 8.00038L1.11089 13.163L1.11085 13.1631C0.629591 13.6445 0.629517 14.425 1.11085 14.9064L8.88902 8.87191Z" fill="#000" stroke="#000" stroke-width="0.5"/>
</svg>
