<svg width="100" height="100" viewBox="0 0 12 14" fill="none" xmlns="http://www.w3.org/2000/svg">
<path d="M10.0001 7.78634V5.66634C9.99912 4.72176 9.66392 3.80799 9.05382 3.08686C8.44373 2.36573 7.59812 1.88377 6.66675 1.72634V0.999674C6.66675 0.822863 6.59651 0.653294 6.47149 0.52827C6.34646 0.403246 6.17689 0.333008 6.00008 0.333008C5.82327 0.333008 5.6537 0.403246 5.52868 0.52827C5.40365 0.653294 5.33341 0.822863 5.33341 0.999674V1.72634C4.40204 1.88377 3.55643 2.36573 2.94634 3.08686C2.33625 3.80799 2.00104 4.72176 2.00008 5.66634V7.78634C1.61105 7.92388 1.27408 8.17839 1.03537 8.51497C0.796667 8.85154 0.667908 9.25371 0.666748 9.66634V10.9997C0.666748 11.1765 0.736986 11.3461 0.86201 11.4711C0.987035 11.5961 1.1566 11.6663 1.33341 11.6663H3.42675C3.58027 12.2313 3.91542 12.73 4.38048 13.0855C4.84554 13.441 5.41468 13.6337 6.00008 13.6337C6.58548 13.6337 7.15462 13.441 7.61968 13.0855C8.08475 12.73 8.41989 12.2313 8.57341 11.6663H10.6667C10.8436 11.6663 11.0131 11.5961 11.1382 11.4711C11.2632 11.3461 11.3334 11.1765 11.3334 10.9997V9.66634C11.3323 9.25371 11.2035 8.85154 10.9648 8.51497C10.7261 8.17839 10.3891 7.92388 10.0001 7.78634ZM3.33341 5.66634C3.33341 4.9591 3.61437 4.28082 4.11446 3.78072C4.61456 3.28063 5.29284 2.99967 6.00008 2.99967C6.70732 2.99967 7.3856 3.28063 7.8857 3.78072C8.3858 4.28082 8.66675 4.9591 8.66675 5.66634V7.66634H3.33341V5.66634ZM6.00008 12.333C5.7674 12.3316 5.53913 12.2693 5.33797 12.1524C5.13681 12.0354 4.96975 11.8679 4.85341 11.6663H7.14675C7.03041 11.8679 6.86336 12.0354 6.66219 12.1524C6.46103 12.2693 6.23277 12.3316 6.00008 12.333ZM10.0001 10.333H2.00008V9.66634C2.00008 9.48953 2.07032 9.31996 2.19534 9.19494C2.32037 9.06991 2.48994 8.99967 2.66675 8.99967H9.33341C9.51023 8.99967 9.6798 9.06991 9.80482 9.19494C9.92984 9.31996 10.0001 9.48953 10.0001 9.66634V10.333Z" fill="#000"/>
</svg>
