<svg width="100" height="100" viewBox="0 0 15 14" fill="none" xmlns="http://www.w3.org/2000/svg">
<path d="M13.98 11.5471L13.3133 8.97376L11.2133 1.24709C11.168 1.07665 11.0569 0.931143 10.9044 0.842427C10.752 0.75371 10.5706 0.729019 10.4 0.77376L7.82 1.44043C7.75843 1.37219 7.68341 1.31742 7.59966 1.27956C7.51591 1.2417 7.42524 1.22157 7.33333 1.22043H0.666667C0.489856 1.22043 0.320286 1.29066 0.195262 1.41569C0.0702379 1.54071 0 1.71028 0 1.88709V12.5538C0 12.7306 0.0702379 12.9001 0.195262 13.0252C0.320286 13.1502 0.489856 13.2204 0.666667 13.2204H7.33333C7.51014 13.2204 7.67971 13.1502 7.80474 13.0252C7.92976 12.9001 8 12.7306 8 12.5538V7.22043L9.46667 12.7004C9.50573 12.8459 9.59289 12.9738 9.71395 13.0634C9.835 13.153 9.98283 13.1989 10.1333 13.1938C10.1909 13.2003 10.2491 13.2003 10.3067 13.1938L13.5267 12.3338C13.6118 12.311 13.6916 12.2716 13.7614 12.2178C13.8312 12.164 13.8896 12.0969 13.9333 12.0204C14.0037 11.8729 14.0202 11.7055 13.98 11.5471ZM3.31333 11.9138H1.31333V10.5804H3.31333V11.9138ZM3.31333 9.24709H1.31333V5.24709H3.31333V9.24709ZM3.31333 3.91376H1.31333V2.58043H3.31333V3.91376ZM6.64667 11.9138H4.64667V10.5804H6.64667V11.9138ZM6.64667 9.24709H4.64667V5.24709H6.64667V9.24709ZM6.64667 3.91376H4.64667V2.58043H6.64667V3.91376ZM8.14667 2.75376L10.08 2.23376L10.4267 3.52043L8.49333 4.04043L8.14667 2.75376ZM9.87333 9.19376L8.84 5.32709L10.7733 4.80709L11.8067 8.67376L9.87333 9.19376ZM10.54 11.7671L10.1933 10.4804L12.1267 9.96043L12.4733 11.2471L10.54 11.7671Z" fill="#000"/>
</svg>
