<svg width="100" height="100" viewBox="0 0 14 14" fill="none" xmlns="http://www.w3.org/2000/svg">
<path d="M12.9133 10.5L11.1066 7.38C11.4763 6.701 11.6689 5.93978 11.6666 5.16667C11.6666 3.92899 11.175 2.742 10.2998 1.86683C9.42463 0.991665 8.23764 0.5 6.99997 0.5C5.76229 0.5 4.57531 0.991665 3.70014 1.86683C2.82497 2.742 2.3333 3.92899 2.3333 5.16667C2.331 5.93978 2.5236 6.701 2.8933 7.38L1.08663 10.5C1.02801 10.6015 0.997199 10.7167 0.997315 10.834C0.997431 10.9512 1.02847 11.0664 1.08729 11.1678C1.14612 11.2692 1.23066 11.3534 1.33237 11.4117C1.43409 11.47 1.54939 11.5005 1.66663 11.5H3.57997L4.5533 13.14C4.58611 13.1944 4.62652 13.2437 4.6733 13.2867C4.79689 13.4058 4.96165 13.4726 5.1333 13.4733H5.22663C5.32728 13.4596 5.42345 13.423 5.50779 13.3664C5.59214 13.3097 5.66243 13.2346 5.7133 13.1467L6.99997 10.9333L8.28663 13.1667C8.33825 13.2534 8.40887 13.3272 8.49317 13.3826C8.57747 13.4381 8.67326 13.4736 8.7733 13.4867H8.86663C9.04059 13.4877 9.20806 13.4207 9.3333 13.3C9.37814 13.2595 9.41638 13.2123 9.44663 13.16L10.42 11.52H12.3333C12.4508 11.5205 12.5663 11.4899 12.6681 11.4313C12.77 11.3728 12.8546 11.2884 12.9133 11.1867C12.9756 11.083 13.0085 10.9643 13.0085 10.8433C13.0085 10.7224 12.9756 10.6037 12.9133 10.5ZM5.12663 11.52L4.5333 10.5267C4.47488 10.4281 4.39204 10.3463 4.29278 10.2891C4.19353 10.2318 4.0812 10.2012 3.96663 10.2H2.8133L3.76663 8.54667C4.42312 9.17925 5.25051 9.6057 6.14663 9.77333L5.12663 11.52ZM6.99997 8.5C6.3407 8.5 5.69623 8.3045 5.14807 7.93823C4.5999 7.57196 4.17266 7.05136 3.92037 6.44228C3.66808 5.83319 3.60207 5.16297 3.73068 4.51637C3.8593 3.86976 4.17677 3.27582 4.64294 2.80964C5.10912 2.34347 5.70306 2.026 6.34967 1.89738C6.99627 1.76877 7.66649 1.83478 8.27558 2.08707C8.88467 2.33936 9.40526 2.7666 9.77153 3.31477C10.1378 3.86293 10.3333 4.5074 10.3333 5.16667C10.3333 6.05072 9.98211 6.89857 9.35699 7.52369C8.73187 8.14881 7.88402 8.5 6.99997 8.5ZM10.0333 10.2C9.91874 10.2012 9.80641 10.2318 9.70715 10.2891C9.6079 10.3463 9.52506 10.4281 9.46663 10.5267L8.8733 11.52L7.85997 9.75333C8.75295 9.58226 9.57728 9.15621 10.2333 8.52667L11.1866 10.18L10.0333 10.2Z" fill="#000"/>
</svg>
