<svg width="100" height="100" viewBox="0 0 14 14" fill="none" xmlns="http://www.w3.org/2000/svg">
<path d="M11.6666 4.33301H10.9999V2.33301C10.9999 1.80257 10.7892 1.29387 10.4141 0.918794C10.0391 0.543722 9.53035 0.333008 8.99992 0.333008H2.33325C1.80282 0.333008 1.29411 0.543722 0.919038 0.918794C0.543966 1.29387 0.333252 1.80257 0.333252 2.33301V10.333C0.333909 10.4646 0.373511 10.5931 0.447066 10.7022C0.520621 10.8114 0.624839 10.8963 0.746585 10.9463C0.825705 10.9837 0.912468 11.0019 0.999919 10.9997C1.08766 11.0002 1.17463 10.9834 1.25586 10.9502C1.33708 10.917 1.41096 10.8681 1.47325 10.8063L3.34659 8.92634H4.33325V9.88634C4.33325 10.4168 4.54397 10.9255 4.91904 11.3006C5.29411 11.6756 5.80282 11.8863 6.33325 11.8863H10.9466L12.5266 13.473C12.5889 13.5348 12.6628 13.5837 12.744 13.6169C12.8252 13.65 12.9122 13.6668 12.9999 13.6663C13.0874 13.6686 13.1741 13.6503 13.2533 13.613C13.375 13.563 13.4792 13.4781 13.5528 13.3689C13.6263 13.2598 13.6659 13.1313 13.6666 12.9997V6.33301C13.6666 5.80258 13.4559 5.29387 13.0808 4.91879C12.7057 4.54372 12.197 4.33301 11.6666 4.33301ZM4.33325 6.33301V7.59301H3.07325C2.98551 7.5925 2.89854 7.60932 2.81731 7.64249C2.73609 7.67567 2.66221 7.72455 2.59992 7.78634L1.66659 8.72634V2.33301C1.66659 2.1562 1.73682 1.98663 1.86185 1.8616C1.98687 1.73658 2.15644 1.66634 2.33325 1.66634H8.99992C9.17673 1.66634 9.3463 1.73658 9.47132 1.8616C9.59635 1.98663 9.66659 2.1562 9.66659 2.33301V4.33301H6.33325C5.80282 4.33301 5.29411 4.54372 4.91904 4.91879C4.54397 5.29387 4.33325 5.80258 4.33325 6.33301ZM12.3333 11.393L11.6666 10.7263C11.6048 10.6633 11.5312 10.6132 11.45 10.5789C11.3687 10.5446 11.2815 10.5267 11.1933 10.5263H6.33325C6.15644 10.5263 5.98687 10.4561 5.86185 10.3311C5.73682 10.2061 5.66659 10.0365 5.66659 9.85968V6.33301C5.66659 6.1562 5.73682 5.98663 5.86185 5.8616C5.98687 5.73658 6.15644 5.66634 6.33325 5.66634H11.6666C11.8434 5.66634 12.013 5.73658 12.138 5.8616C12.263 5.98663 12.3333 6.1562 12.3333 6.33301V11.393Z" fill="#000"/>
</svg>
