<svg width="100" height="100" viewBox="0 0 8 6" fill="none" xmlns="http://www.w3.org/2000/svg">
<path d="M7.35497 0.60493C7.30849 0.558066 7.25319 0.520869 7.19226 0.495485C7.13133 0.4701 7.06598 0.457031 6.99997 0.457031C6.93397 0.457031 6.86862 0.4701 6.80769 0.495485C6.74676 0.520869 6.69146 0.558066 6.64497 0.60493L2.91997 4.33493L1.35497 2.76493C1.30671 2.71831 1.24974 2.68165 1.18732 2.65705C1.12489 2.63245 1.05823 2.62039 0.991136 2.62155C0.924046 2.62271 0.857841 2.63707 0.796302 2.66382C0.734763 2.69056 0.679094 2.72917 0.632475 2.77743C0.585856 2.82569 0.549199 2.88266 0.524597 2.94509C0.499995 3.00752 0.487929 3.07418 0.48909 3.14127C0.490251 3.20836 0.504615 3.27456 0.531362 3.3361C0.558108 3.39764 0.596714 3.45331 0.644975 3.49993L2.56497 5.41993C2.61146 5.46679 2.66676 5.50399 2.72769 5.52938C2.78862 5.55476 2.85397 5.56783 2.91997 5.56783C2.98598 5.56783 3.05133 5.55476 3.11226 5.52938C3.17319 5.50399 3.22849 5.46679 3.27497 5.41993L7.35497 1.33993C7.40573 1.29311 7.44623 1.23628 7.47393 1.17303C7.50164 1.10978 7.51594 1.04148 7.51594 0.97243C7.51594 0.90338 7.50164 0.835077 7.47393 0.771827C7.44623 0.708577 7.40573 0.651752 7.35497 0.60493Z" fill="#000"/>
</svg>
