<svg width="100" height="100" viewBox="0 0 14 14" fill="none" xmlns="http://www.w3.org/2000/svg">
<path d="M8.81338 4.86065L5.95338 7.72732L4.85338 6.62732C4.79361 6.55753 4.72007 6.50085 4.63736 6.46083C4.55465 6.42082 4.46456 6.39833 4.37275 6.39479C4.28093 6.39124 4.18938 6.40671 4.10383 6.44023C4.01828 6.47374 3.94058 6.52458 3.87561 6.58955C3.81064 6.65452 3.7598 6.73222 3.72628 6.81777C3.69277 6.90332 3.6773 6.99487 3.68084 7.08669C3.68439 7.1785 3.70688 7.26859 3.74689 7.3513C3.78691 7.43401 3.84359 7.50755 3.91338 7.56732L5.48004 9.14065C5.54234 9.20244 5.61621 9.25132 5.69744 9.2845C5.77866 9.31767 5.86564 9.33449 5.95338 9.33398C6.12827 9.33325 6.29587 9.26381 6.42004 9.14065L9.75338 5.80732C9.81586 5.74534 9.86546 5.67161 9.8993 5.59037C9.93315 5.50913 9.95058 5.42199 9.95058 5.33398C9.95058 5.24598 9.93315 5.15884 9.8993 5.0776C9.86546 4.99636 9.81586 4.92263 9.75338 4.86065C9.62847 4.73648 9.4595 4.66679 9.28338 4.66679C9.10725 4.66679 8.93828 4.73648 8.81338 4.86065ZM7.00004 0.333984C5.6815 0.333984 4.39257 0.724978 3.29624 1.45752C2.19991 2.19006 1.34543 3.23125 0.840847 4.44943C0.336263 5.6676 0.20424 7.00805 0.461475 8.30125C0.71871 9.59446 1.35365 10.7823 2.286 11.7147C3.21835 12.647 4.40623 13.282 5.69944 13.5392C6.99265 13.7965 8.33309 13.6644 9.55127 13.1598C10.7694 12.6553 11.8106 11.8008 12.5432 10.7045C13.2757 9.60812 13.6667 8.31919 13.6667 7.00065C13.6667 6.12517 13.4943 5.25827 13.1592 4.44943C12.8242 3.64059 12.3331 2.90566 11.7141 2.28661C11.095 1.66755 10.3601 1.17649 9.55127 0.841454C8.74243 0.506423 7.87552 0.333984 7.00004 0.333984ZM7.00004 12.334C5.94521 12.334 4.91406 12.0212 4.037 11.4352C3.15994 10.8491 2.47635 10.0162 2.07269 9.04163C1.66902 8.06709 1.5634 6.99474 1.76919 5.96017C1.97498 4.9256 2.48293 3.9753 3.22881 3.22941C3.97469 2.48354 4.925 1.97558 5.95956 1.7698C6.99413 1.56401 8.06648 1.66963 9.04102 2.07329C10.0156 2.47696 10.8485 3.16055 11.4345 4.03761C12.0206 4.91467 12.3334 5.94582 12.3334 7.00065C12.3334 8.41514 11.7715 9.77169 10.7713 10.7719C9.77109 11.7721 8.41453 12.334 7.00004 12.334Z" fill="#000"/>
</svg>
