<svg width="100" height="100" viewBox="0 0 14 14" fill="none" xmlns="http://www.w3.org/2000/svg">
<path d="M9.47339 4.52721C9.41141 4.46472 9.33768 4.41513 9.25644 4.38128C9.1752 4.34743 9.08806 4.33001 9.00005 4.33001C8.91205 4.33001 8.82491 4.34743 8.74367 4.38128C8.66243 4.41513 8.58869 4.46472 8.52672 4.52721L7.00005 6.06054L5.47339 4.52721C5.34785 4.40167 5.17759 4.33115 5.00005 4.33115C4.82252 4.33115 4.65226 4.40167 4.52672 4.52721C4.40118 4.65274 4.33066 4.82301 4.33066 5.00054C4.33066 5.17808 4.40118 5.34834 4.52672 5.47387L6.06005 7.00054L4.52672 8.52721C4.46423 8.58918 4.41464 8.66292 4.38079 8.74416C4.34695 8.8254 4.32952 8.91253 4.32952 9.00054C4.32952 9.08855 4.34695 9.17569 4.38079 9.25693C4.41464 9.33817 4.46423 9.4119 4.52672 9.47388C4.5887 9.53636 4.66243 9.58596 4.74367 9.6198C4.82491 9.65365 4.91205 9.67107 5.00005 9.67107C5.08806 9.67107 5.1752 9.65365 5.25644 9.6198C5.33768 9.58596 5.41141 9.53636 5.47339 9.47388L7.00005 7.94054L8.52672 9.47388C8.58869 9.53636 8.66243 9.58596 8.74367 9.6198C8.82491 9.65365 8.91205 9.67107 9.00005 9.67107C9.08806 9.67107 9.1752 9.65365 9.25644 9.6198C9.33768 9.58596 9.41141 9.53636 9.47339 9.47388C9.53587 9.4119 9.58547 9.33817 9.61931 9.25693C9.65316 9.17569 9.67059 9.08855 9.67059 9.00054C9.67059 8.91253 9.65316 8.8254 9.61931 8.74416C9.58547 8.66292 9.53587 8.58918 9.47339 8.52721L7.94005 7.00054L9.47339 5.47387C9.53587 5.4119 9.58547 5.33817 9.61931 5.25693C9.65316 5.17569 9.67059 5.08855 9.67059 5.00054C9.67059 4.91253 9.65316 4.8254 9.61931 4.74416C9.58547 4.66292 9.53587 4.58918 9.47339 4.52721ZM11.7134 2.28721C11.0984 1.65047 10.3628 1.14259 9.54942 0.793199C8.73606 0.443805 7.86126 0.259897 6.97606 0.252205C6.09087 0.244513 5.213 0.413191 4.39369 0.748397C3.57438 1.0836 2.83004 1.57862 2.20409 2.20457C1.57814 2.83053 1.08311 3.57487 0.747908 4.39418C0.412702 5.21349 0.244024 6.09135 0.251717 6.97655C0.259409 7.86174 0.443317 8.73654 0.79271 9.5499C1.1421 10.3633 1.64998 11.0989 2.28672 11.7139C2.9017 12.3506 3.63733 12.8585 4.45069 13.2079C5.26405 13.5573 6.13885 13.7412 7.02404 13.7489C7.90924 13.7566 8.7871 13.5879 9.60641 13.2527C10.4257 12.9175 11.1701 12.4225 11.796 11.7965C12.422 11.1706 12.917 10.4262 13.2522 9.6069C13.5874 8.78759 13.7561 7.90973 13.7484 7.02453C13.7407 6.13934 13.5568 5.26454 13.2074 4.45118C12.858 3.63782 12.3501 2.90219 11.7134 2.28721ZM10.7734 10.7739C9.90141 11.6468 8.75375 12.1904 7.52592 12.3121C6.29809 12.4337 5.06606 12.1259 4.03973 11.4411C3.01341 10.7562 2.25629 9.73668 1.89737 8.5562C1.53844 7.37571 1.59992 6.1073 2.07133 4.96706C2.54273 3.82683 3.3949 2.88531 4.48265 2.30292C5.57039 1.72053 6.82642 1.53329 8.03672 1.77312C9.24703 2.01295 10.3368 2.665 11.1202 3.61818C11.9037 4.57136 12.3324 5.7667 12.3334 7.00054C12.3358 7.7014 12.1991 8.39577 11.9313 9.04346C11.6636 9.69116 11.27 10.2793 10.7734 10.7739Z" fill="#000"/>
</svg>
