<svg width="150" height="150" viewBox="0 0 12 12" fill="none" xmlns="http://www.w3.org/2000/svg">
<path d="M10.855 3.60493C10.8085 3.55807 10.7532 3.52087 10.6923 3.49548C10.6313 3.4701 10.566 3.45703 10.5 3.45703C10.434 3.45703 10.3686 3.4701 10.3077 3.49548C10.2468 3.52087 10.1915 3.55807 10.145 3.60493L6.41997 7.33493L6.35497 7.26493C6.30671 7.21831 6.24974 7.18165 6.18732 7.15705C6.12489 7.13245 6.05823 7.12039 5.99114 7.12155C5.92405 7.12271 5.85784 7.13707 5.7963 7.16382C5.73476 7.19056 5.67909 7.22917 5.63247 7.27743C5.58586 7.32569 5.5492 7.38266 5.5246 7.44509C5.49999 7.50752 5.48793 7.57418 5.48909 7.64127C5.49025 7.70836 5.50461 7.77456 5.53136 7.8361C5.55811 7.89764 5.59671 7.95331 5.64497 7.99993L6.06497 8.41993C6.11146 8.46679 6.16676 8.50399 6.22769 8.52938C6.28862 8.55476 6.35397 8.56783 6.41997 8.56783C6.48598 8.56783 6.55133 8.55476 6.61226 8.52938C6.67319 8.50399 6.72849 8.46679 6.77497 8.41993L10.855 4.33993C10.9057 4.29311 10.9462 4.23628 10.9739 4.17303C11.0016 4.10978 11.0159 4.04148 11.0159 3.97243C11.0159 3.90338 11.0016 3.83508 10.9739 3.77183C10.9462 3.70858 10.9057 3.65175 10.855 3.60493Z" fill="#000"/>
<path d="M8.35497 3.60493C8.30849 3.55807 8.25319 3.52087 8.19226 3.49548C8.13133 3.4701 8.06598 3.45703 7.99997 3.45703C7.93397 3.45703 7.86862 3.4701 7.80769 3.49548C7.74676 3.52087 7.69146 3.55807 7.64497 3.60493L3.91997 7.33493L2.35497 5.76493C2.30671 5.71831 2.24974 5.68165 2.18732 5.65705C2.12489 5.63245 2.05823 5.62039 1.99114 5.62155C1.92405 5.62271 1.85784 5.63707 1.7963 5.66382C1.73476 5.69056 1.67909 5.72917 1.63247 5.77743C1.58586 5.82569 1.5492 5.88266 1.5246 5.94509C1.49999 6.00752 1.48793 6.07418 1.48909 6.14127C1.49025 6.20836 1.50461 6.27456 1.53136 6.3361C1.55811 6.39764 1.59671 6.45331 1.64497 6.49993L3.56497 8.41993C3.61146 8.46679 3.66676 8.50399 3.72769 8.52938C3.78862 8.55476 3.85397 8.56783 3.91997 8.56783C3.98598 8.56783 4.05133 8.55476 4.11226 8.52938C4.17319 8.50399 4.22849 8.46679 4.27497 8.41993L8.35497 4.33993C8.40573 4.29311 8.44623 4.23628 8.47393 4.17303C8.50164 4.10978 8.51594 4.04148 8.51594 3.97243C8.51594 3.90338 8.50164 3.83508 8.47393 3.77183C8.44623 3.70858 8.40573 3.65175 8.35497 3.60493Z" fill="#000"/>
</svg>
