<svg width="100" height="100" viewBox="0 0 14 14" fill="none" xmlns="http://www.w3.org/2000/svg">
<path d="M13.6667 3.82733C13.6672 3.73959 13.6503 3.65262 13.6172 3.57139C13.584 3.49017 13.5351 3.41629 13.4733 3.354L10.6467 0.527329C10.5844 0.465541 10.5105 0.416658 10.4293 0.383481C10.348 0.350305 10.2611 0.333488 10.1733 0.333996C10.0856 0.333488 9.99861 0.350305 9.91739 0.383481C9.83616 0.416658 9.76228 0.465541 9.69999 0.527329L7.81332 2.414L0.526657 9.70066C0.46487 9.76296 0.415986 9.83683 0.38281 9.91806C0.349634 9.99928 0.332817 10.0863 0.333324 10.174V13.0007C0.333324 13.1775 0.403562 13.347 0.528586 13.4721C0.65361 13.5971 0.82318 13.6673 0.999991 13.6673H3.82666C3.91994 13.6724 4.01325 13.6578 4.10054 13.6245C4.18782 13.5912 4.26713 13.5399 4.33332 13.474L11.58 6.18733L13.4733 4.334C13.5342 4.26938 13.5838 4.19502 13.62 4.114C13.6264 4.06086 13.6264 4.00714 13.62 3.954C13.6231 3.92296 13.6231 3.8917 13.62 3.86066L13.6667 3.82733ZM3.55332 12.334H1.66666V10.4473L8.28666 3.82733L10.1733 5.714L3.55332 12.334ZM11.1133 4.774L9.22666 2.88733L10.1733 1.94733L12.0533 3.82733L11.1133 4.774Z" fill="#000"/>
</svg>
