<svg width="100" height="100" viewBox="0 0 14 14" fill="none" xmlns="http://www.w3.org/2000/svg">
<path d="M6.60675 7.66738L8.14008 9.19405C8.20257 9.25603 8.25216 9.32976 8.28601 9.411C8.31985 9.49224 8.33728 9.57938 8.33728 9.66739C8.33728 9.75539 8.31985 9.84253 8.28601 9.92377C8.25216 10.005 8.20257 10.0787 8.14008 10.1407C8.07811 10.2032 8.00437 10.2528 7.92313 10.2866C7.84189 10.3205 7.75476 10.3379 7.66675 10.3379C7.57874 10.3379 7.4916 10.3205 7.41036 10.2866C7.32912 10.2528 7.25539 10.2032 7.19341 10.1407L4.52675 7.47405C4.46605 7.41065 4.41848 7.33589 4.38675 7.25405C4.32007 7.09174 4.32007 6.90969 4.38675 6.74738C4.41848 6.66555 4.46605 6.59079 4.52675 6.52738L7.19341 3.86072C7.25557 3.79856 7.32937 3.74925 7.41058 3.71561C7.4918 3.68197 7.57884 3.66466 7.66675 3.66466C7.75465 3.66466 7.8417 3.68197 7.92291 3.71561C8.00413 3.74925 8.07792 3.79856 8.14008 3.86072C8.20224 3.92288 8.25155 3.99667 8.28519 4.07788C8.31883 4.1591 8.33614 4.24614 8.33614 4.33405C8.33614 4.42196 8.31883 4.509 8.28519 4.59022C8.25155 4.67143 8.20224 4.74523 8.14008 4.80738L6.60675 6.33405H13.0001C13.1769 6.33405 13.3465 6.40429 13.4715 6.52931C13.5965 6.65434 13.6667 6.82391 13.6667 7.00072C13.6667 7.17753 13.5965 7.3471 13.4715 7.47212C13.3465 7.59715 13.1769 7.66738 13.0001 7.66738H6.60675ZM7.00008 0.334051C8.24602 0.328488 9.46859 0.672193 10.5291 1.32618C11.5896 1.98016 12.4456 2.91826 13.0001 4.03405C13.0796 4.19318 13.0927 4.3774 13.0365 4.54618C12.9802 4.71497 12.8592 4.85449 12.7001 4.93405C12.541 5.01362 12.3567 5.02671 12.1879 4.97045C12.0192 4.91419 11.8796 4.79318 11.8001 4.63405C11.3786 3.78293 10.7375 3.0598 9.94305 2.53938C9.14857 2.01896 8.22953 1.72013 7.28091 1.67378C6.33229 1.62743 5.3885 1.83524 4.54707 2.27572C3.70564 2.71621 2.9971 3.3734 2.49467 4.17938C1.99225 4.98536 1.71416 5.91088 1.68915 6.86031C1.66414 7.80973 1.89311 8.74861 2.3524 9.57993C2.8117 10.4112 3.48465 11.1048 4.30172 11.589C5.11879 12.0732 6.05033 12.3304 7.00008 12.3341C7.99416 12.3384 8.96931 12.0623 9.81362 11.5375C10.6579 11.0128 11.3372 10.2606 11.7734 9.36738C11.853 9.20825 11.9925 9.08725 12.1613 9.03099C12.3301 8.97473 12.5143 8.98782 12.6734 9.06738C12.8325 9.14695 12.9535 9.28647 13.0098 9.45525C13.0661 9.62403 13.053 9.80826 12.9734 9.96739C12.4449 11.0311 11.6417 11.9342 10.6471 12.5834C9.65247 13.2326 8.50245 13.6043 7.316 13.66C6.12955 13.7158 4.94976 13.4535 3.89865 12.9004C2.84754 12.3473 1.9633 11.5234 1.33737 10.5139C0.711442 9.50449 0.366567 8.34614 0.338417 7.15872C0.310266 5.9713 0.599864 4.79791 1.17725 3.75994C1.75464 2.72197 2.59885 1.8571 3.62257 1.25479C4.64628 0.652481 5.81232 0.334608 7.00008 0.334051Z" fill="#000"/>
</svg>
