<svg width="100" height="100" viewBox="0 0 14 14" fill="none" xmlns="http://www.w3.org/2000/svg">
<path d="M5.66659 7.66634H0.999919C0.823108 7.66634 0.653538 7.73658 0.528514 7.8616C0.40349 7.98663 0.333252 8.1562 0.333252 8.33301V12.9997C0.333252 13.1765 0.40349 13.3461 0.528514 13.4711C0.653538 13.5961 0.823108 13.6663 0.999919 13.6663H5.66659C5.8434 13.6663 6.01297 13.5961 6.13799 13.4711C6.26301 13.3461 6.33325 13.1765 6.33325 12.9997V8.33301C6.33325 8.1562 6.26301 7.98663 6.13799 7.8616C6.01297 7.73658 5.8434 7.66634 5.66659 7.66634ZM4.99992 12.333H1.66659V8.99967H4.99992V12.333ZM12.9999 0.333008H8.33325C8.15644 0.333008 7.98687 0.403246 7.86185 0.52827C7.73682 0.653294 7.66659 0.822863 7.66659 0.999674V5.66634C7.66659 5.84315 7.73682 6.01272 7.86185 6.13775C7.98687 6.26277 8.15644 6.33301 8.33325 6.33301H12.9999C13.1767 6.33301 13.3463 6.26277 13.4713 6.13775C13.5963 6.01272 13.6666 5.84315 13.6666 5.66634V0.999674C13.6666 0.822863 13.5963 0.653294 13.4713 0.52827C13.3463 0.403246 13.1767 0.333008 12.9999 0.333008ZM12.3333 4.99967H8.99992V1.66634H12.3333V4.99967ZM12.9999 7.66634H8.33325C8.15644 7.66634 7.98687 7.73658 7.86185 7.8616C7.73682 7.98663 7.66659 8.1562 7.66659 8.33301V12.9997C7.66659 13.1765 7.73682 13.3461 7.86185 13.4711C7.98687 13.5961 8.15644 13.6663 8.33325 13.6663H12.9999C13.1767 13.6663 13.3463 13.5961 13.4713 13.4711C13.5963 13.3461 13.6666 13.1765 13.6666 12.9997V8.33301C13.6666 8.1562 13.5963 7.98663 13.4713 7.8616C13.3463 7.73658 13.1767 7.66634 12.9999 7.66634ZM12.3333 12.333H8.99992V8.99967H12.3333V12.333ZM5.66659 0.333008H0.999919C0.823108 0.333008 0.653538 0.403246 0.528514 0.52827C0.40349 0.653294 0.333252 0.822863 0.333252 0.999674V5.66634C0.333252 5.84315 0.40349 6.01272 0.528514 6.13775C0.653538 6.26277 0.823108 6.33301 0.999919 6.33301H5.66659C5.8434 6.33301 6.01297 6.26277 6.13799 6.13775C6.26301 6.01272 6.33325 5.84315 6.33325 5.66634V0.999674C6.33325 0.822863 6.26301 0.653294 6.13799 0.52827C6.01297 0.403246 5.8434 0.333008 5.66659 0.333008ZM4.99992 4.99967H1.66659V1.66634H4.99992V4.99967Z" fill="#000"/>
</svg>
