<svg width="100" height="100" viewBox="0 0 14 8" fill="none" xmlns="http://www.w3.org/2000/svg">
<path d="M1.00001 1.33333H13C13.1768 1.33333 13.3464 1.2631 13.4714 1.13807C13.5964 1.01305 13.6667 0.843478 13.6667 0.666667C13.6667 0.489856 13.5964 0.320287 13.4714 0.195262C13.3464 0.070238 13.1768 0 13 0H1.00001C0.823199 0 0.65363 0.070238 0.528606 0.195262C0.403581 0.320287 0.333344 0.489856 0.333344 0.666667C0.333344 0.843478 0.403581 1.01305 0.528606 1.13807C0.65363 1.2631 0.823199 1.33333 1.00001 1.33333ZM13 6.66667H1.00001C0.823199 6.66667 0.65363 6.7369 0.528606 6.86193C0.403581 6.98695 0.333344 7.15652 0.333344 7.33333C0.333344 7.51014 0.403581 7.67971 0.528606 7.80474C0.65363 7.92976 0.823199 8 1.00001 8H13C13.1768 8 13.3464 7.92976 13.4714 7.80474C13.5964 7.67971 13.6667 7.51014 13.6667 7.33333C13.6667 7.15652 13.5964 6.98695 13.4714 6.86193C13.3464 6.7369 13.1768 6.66667 13 6.66667ZM13 3.33333H1.00001C0.823199 3.33333 0.65363 3.40357 0.528606 3.5286C0.403581 3.65362 0.333344 3.82319 0.333344 4C0.333344 4.17681 0.403581 4.34638 0.528606 4.4714C0.65363 4.59643 0.823199 4.66667 1.00001 4.66667H13C13.1768 4.66667 13.3464 4.59643 13.4714 4.4714C13.5964 4.34638 13.6667 4.17681 13.6667 4C13.6667 3.82319 13.5964 3.65362 13.4714 3.5286C13.3464 3.40357 13.1768 3.33333 13 3.33333Z" fill="#000"/>
</svg>
