<svg width="100" height="100" viewBox="0 0 14 10" fill="none" xmlns="http://www.w3.org/2000/svg">
<path d="M10.8863 0.806368L11.2399 1.15992L10.8863 0.806369L5.2399 6.45282L3.11346 4.32637C2.59819 3.81111 1.80161 3.81111 1.28635 4.32637L1.6399 4.67992L1.28635 4.32637C0.771087 4.84163 0.771087 5.63821 1.28635 6.15348L4.32635 9.19348C4.43587 9.30299 4.56525 9.40501 4.72683 9.47683C4.89059 9.54961 5.06156 9.57992 5.2399 9.57992C5.41825 9.57992 5.58922 9.54961 5.75297 9.47683C5.91456 9.40501 6.04394 9.30299 6.15346 9.19348L12.7135 2.63348C13.2287 2.11821 13.2287 1.32163 12.7135 0.806369L12.3617 1.15815L12.7135 0.806368C12.1982 0.291106 11.4016 0.291106 10.8863 0.806368Z" fill="#fff" stroke="#fff"/>
</svg>
