<svg width="100" height="100" viewBox="0 0 14 14" fill="none" xmlns="http://www.w3.org/2000/svg">
<path d="M7.07387 9.26039L4.48721 11.8471C4.17403 12.1493 3.75578 12.3182 3.32054 12.3182C2.8853 12.3182 2.46705 12.1493 2.15388 11.8471C2.00028 11.6941 1.8784 11.5122 1.79524 11.312C1.71208 11.1118 1.66928 10.8972 1.66928 10.6804C1.66928 10.4636 1.71208 10.2489 1.79524 10.0487C1.8784 9.84853 2.00028 9.66671 2.15388 9.51372L4.74054 6.92706C4.86608 6.80152 4.9366 6.63126 4.9366 6.45372C4.9366 6.27619 4.86608 6.10592 4.74054 5.98039C4.61501 5.85485 4.44474 5.78433 4.26721 5.78433C4.08967 5.78433 3.91941 5.85485 3.79388 5.98039L1.20721 8.57372C0.686113 9.14092 0.404289 9.8875 0.420592 10.6576C0.436894 11.4276 0.750063 12.1616 1.2947 12.7062C1.83933 13.2509 2.57332 13.564 3.34337 13.5803C4.11343 13.5966 4.86001 13.3148 5.42721 12.7937L8.02054 10.2071C8.14608 10.0815 8.2166 9.91126 8.2166 9.73372C8.2166 9.55619 8.14608 9.38592 8.02054 9.26039C7.89501 9.13485 7.72474 9.06433 7.54721 9.06433C7.36967 9.06433 7.19941 9.13485 7.07387 9.26039ZM12.7939 1.20706C12.2331 0.649727 11.4745 0.336914 10.6839 0.336914C9.89323 0.336914 9.13469 0.649727 8.57387 1.20706L5.98054 3.79372C5.91838 3.85588 5.86908 3.92967 5.83544 4.01089C5.8018 4.0921 5.78448 4.17915 5.78448 4.26706C5.78448 4.35496 5.8018 4.44201 5.83544 4.52322C5.86908 4.60444 5.91838 4.67823 5.98054 4.74039C6.0427 4.80255 6.11649 4.85185 6.19771 4.8855C6.27892 4.91914 6.36597 4.93645 6.45388 4.93645C6.54178 4.93645 6.62883 4.91914 6.71004 4.8855C6.79126 4.85185 6.86505 4.80255 6.92721 4.74039L9.51388 2.15372C9.82705 1.85147 10.2453 1.68256 10.6805 1.68256C11.1158 1.68256 11.534 1.85147 11.8472 2.15372C12.0008 2.30671 12.1227 2.48853 12.2058 2.68873C12.289 2.88894 12.3318 3.1036 12.3318 3.32039C12.3318 3.53718 12.289 3.75184 12.2058 3.95204C12.1227 4.15225 12.0008 4.33406 11.8472 4.48705L9.26054 7.07372C9.19806 7.1357 9.14846 7.20943 9.11461 7.29067C9.08077 7.37191 9.06334 7.45905 9.06334 7.54706C9.06334 7.63506 9.08077 7.7222 9.11461 7.80344C9.14846 7.88468 9.19806 7.95841 9.26054 8.02039C9.32252 8.08287 9.39625 8.13247 9.47749 8.16632C9.55873 8.20016 9.64587 8.21759 9.73388 8.21759C9.82188 8.21759 9.90902 8.20016 9.99026 8.16632C10.0715 8.13247 10.1452 8.08287 10.2072 8.02039L12.7939 5.42706C13.3512 4.86624 13.664 4.1077 13.664 3.31706C13.664 2.52641 13.3512 1.76787 12.7939 1.20706ZM4.88721 9.11372C4.9495 9.17551 5.02338 9.22439 5.1046 9.25757C5.18583 9.29075 5.2728 9.30756 5.36054 9.30706C5.44828 9.30756 5.53525 9.29075 5.61648 9.25757C5.6977 9.22439 5.77158 9.17551 5.83388 9.11372L9.11388 5.83372C9.23941 5.70819 9.30994 5.53792 9.30994 5.36039C9.30994 5.18285 9.23941 5.01259 9.11388 4.88706C8.98834 4.76152 8.81808 4.69099 8.64054 4.69099C8.46301 4.69099 8.29274 4.76152 8.16721 4.88706L4.88721 8.16706C4.82472 8.22903 4.77513 8.30276 4.74128 8.384C4.70744 8.46524 4.69001 8.55238 4.69001 8.64039C4.69001 8.7284 4.70744 8.81553 4.74128 8.89677C4.77513 8.97801 4.82472 9.05175 4.88721 9.11372Z" fill="#000"/>
</svg>
