<svg width="100" height="100" viewBox="0 0 30 24" fill="none" xmlns="http://www.w3.org/2000/svg">
<path d="M28.5036 22.8933H8.44269C7.61588 22.8933 6.94576 22.2232 6.94576 21.3963C6.94576 20.5695 7.61588 19.8994 8.44269 19.8994H28.5031C29.3299 19.8994 30 20.5695 30 21.3963C30 22.2232 29.3304 22.8933 28.5036 22.8933Z" fill="#000"/>
<path d="M28.5036 13.4973H8.44269C7.61588 13.4973 6.94576 12.8272 6.94576 12.0003C6.94576 11.1735 7.61588 10.5034 8.44269 10.5034H28.5031C29.3299 10.5034 30 11.1735 30 12.0003C30.0005 12.8272 29.3304 13.4973 28.5036 13.4973Z" fill="#000"/>
<path d="M28.5036 4.1008H8.44269C7.61588 4.1008 6.94576 3.43067 6.94576 2.60387C6.94576 1.77706 7.61588 1.10693 8.44269 1.10693H28.5031C29.3299 1.10693 30 1.77706 30 2.60387C30 3.43067 29.3304 4.1008 28.5036 4.1008Z" fill="#000"/>
<path d="M2.01038 4.73023C3.12068 4.73023 4.02076 3.83015 4.02076 2.71985C4.02076 1.60955 3.12068 0.709473 2.01038 0.709473C0.900077 0.709473 0 1.60955 0 2.71985C0 3.83015 0.900077 4.73023 2.01038 4.73023Z" fill="#000"/>
<path d="M2.01038 14.0105C3.12068 14.0105 4.02076 13.1104 4.02076 12.0001C4.02076 10.8898 3.12068 9.98975 2.01038 9.98975C0.900077 9.98975 0 10.8898 0 12.0001C0 13.1104 0.900077 14.0105 2.01038 14.0105Z" fill="#000"/>
<path d="M2.01038 23.2913C3.12068 23.2913 4.02076 22.3912 4.02076 21.2809C4.02076 20.1706 3.12068 19.2705 2.01038 19.2705C0.900077 19.2705 0 20.1706 0 21.2809C0 22.3912 0.900077 23.2913 2.01038 23.2913Z" fill="#000"/>
</svg>
