<svg width="100" height="100" viewBox="0 0 14 14" fill="none" xmlns="http://www.w3.org/2000/svg">
<path d="M7.66659 9.66704H3.66659C3.48978 9.66704 3.32021 9.73728 3.19519 9.8623C3.07016 9.98732 2.99992 10.1569 2.99992 10.3337C2.99992 10.5105 3.07016 10.6801 3.19519 10.8051C3.32021 10.9301 3.48978 11.0004 3.66659 11.0004H7.66659C7.8434 11.0004 8.01297 10.9301 8.13799 10.8051C8.26302 10.6801 8.33326 10.5105 8.33326 10.3337C8.33326 10.1569 8.26302 9.98732 8.13799 9.8623C8.01297 9.73728 7.8434 9.66704 7.66659 9.66704ZM4.99992 5.66704H6.33326C6.51007 5.66704 6.67964 5.5968 6.80466 5.47178C6.92969 5.34675 6.99992 5.17718 6.99992 5.00037C6.99992 4.82356 6.92969 4.65399 6.80466 4.52897C6.67964 4.40394 6.51007 4.3337 6.33326 4.3337H4.99992C4.82311 4.3337 4.65354 4.40394 4.52852 4.52897C4.4035 4.65399 4.33326 4.82356 4.33326 5.00037C4.33326 5.17718 4.4035 5.34675 4.52852 5.47178C4.65354 5.5968 4.82311 5.66704 4.99992 5.66704ZM12.9999 7.00037H10.9999V1.00037C11.0004 0.882898 10.9698 0.767387 10.9113 0.665535C10.8527 0.563683 10.7683 0.479107 10.6666 0.420371C10.5652 0.361859 10.4503 0.331055 10.3333 0.331055C10.2162 0.331055 10.1013 0.361859 9.99992 0.420371L7.99992 1.56704L5.99992 0.420371C5.89858 0.361859 5.78362 0.331055 5.66659 0.331055C5.54957 0.331055 5.4346 0.361859 5.33326 0.420371L3.33326 1.56704L1.33326 0.420371C1.23191 0.361859 1.11695 0.331055 0.999924 0.331055C0.882899 0.331055 0.767937 0.361859 0.666591 0.420371C0.564854 0.479107 0.480445 0.563683 0.421909 0.665535C0.363374 0.767387 0.332791 0.882898 0.333257 1.00037V11.667C0.333257 12.1975 0.543971 12.7062 0.919044 13.0813C1.29412 13.4563 1.80282 13.667 2.33326 13.667H11.6666C12.197 13.667 12.7057 13.4563 13.0808 13.0813C13.4559 12.7062 13.6666 12.1975 13.6666 11.667V7.66704C13.6666 7.49023 13.5964 7.32066 13.4713 7.19563C13.3463 7.07061 13.1767 7.00037 12.9999 7.00037ZM2.33326 12.3337C2.15645 12.3337 1.98688 12.2635 1.86185 12.1384C1.73683 12.0134 1.66659 11.8438 1.66659 11.667V2.1537L2.99992 2.9137C3.10282 2.96745 3.21718 2.99551 3.33326 2.99551C3.44934 2.99551 3.5637 2.96745 3.66659 2.9137L5.66659 1.76704L7.66659 2.9137C7.76948 2.96745 7.88384 2.99551 7.99992 2.99551C8.11601 2.99551 8.23037 2.96745 8.33326 2.9137L9.66659 2.1537V11.667C9.66839 11.8945 9.70898 12.1199 9.78659 12.3337H2.33326ZM12.3333 11.667C12.3333 11.8438 12.263 12.0134 12.138 12.1384C12.013 12.2635 11.8434 12.3337 11.6666 12.3337C11.4898 12.3337 11.3202 12.2635 11.1952 12.1384C11.0702 12.0134 10.9999 11.8438 10.9999 11.667V8.3337H12.3333V11.667ZM7.66659 7.00037H3.66659C3.48978 7.00037 3.32021 7.07061 3.19519 7.19563C3.07016 7.32066 2.99992 7.49023 2.99992 7.66704C2.99992 7.84385 3.07016 8.01342 3.19519 8.13844C3.32021 8.26347 3.48978 8.3337 3.66659 8.3337H7.66659C7.8434 8.3337 8.01297 8.26347 8.13799 8.13844C8.26302 8.01342 8.33326 7.84385 8.33326 7.66704C8.33326 7.49023 8.26302 7.32066 8.13799 7.19563C8.01297 7.07061 7.8434 7.00037 7.66659 7.00037Z" fill="#000"/>
</svg>
