<svg width="100" height="100" viewBox="0 0 15 11" fill="none" xmlns="http://www.w3.org/2000/svg">
<path d="M14.3267 3.79371L13.66 3.42704L7.66 0.0937109H7.58667C7.54579 0.0764301 7.50338 0.0630376 7.46 0.0537109H7.33333H7.21333C7.16779 0.0630438 7.12316 0.0764304 7.08 0.0937109H7.00667L1.00667 3.42704C0.904068 3.48519 0.818729 3.56951 0.759356 3.6714C0.699983 3.7733 0.668701 3.88911 0.668701 4.00704C0.668701 4.12497 0.699983 4.24079 0.759356 4.34269C0.818729 4.44458 0.904068 4.5289 1.00667 4.58704L2.66667 5.50704V8.66704C2.66667 9.19748 2.87738 9.70618 3.25245 10.0813C3.62753 10.4563 4.13623 10.667 4.66667 10.667H10C10.5304 10.667 11.0391 10.4563 11.4142 10.0813C11.7893 9.70618 12 9.19748 12 8.66704V5.50704L13.3333 4.76038V6.66704C13.3333 6.84385 13.4036 7.01342 13.5286 7.13845C13.6536 7.26347 13.8232 7.33371 14 7.33371C14.1768 7.33371 14.3464 7.26347 14.4714 7.13845C14.5964 7.01342 14.6667 6.84385 14.6667 6.66704V4.37371C14.6665 4.25558 14.6349 4.13962 14.5751 4.03771C14.5154 3.9358 14.4296 3.85159 14.3267 3.79371ZM10.6667 8.66704C10.6667 8.84385 10.5964 9.01342 10.4714 9.13845C10.3464 9.26347 10.1768 9.33371 10 9.33371H4.66667C4.48986 9.33371 4.32029 9.26347 4.19526 9.13845C4.07024 9.01342 4 8.84385 4 8.66704V6.24704L7.00667 7.91371L7.10667 7.95371H7.16667C7.222 7.96068 7.278 7.96068 7.33333 7.95371C7.38867 7.96068 7.44466 7.96068 7.5 7.95371H7.56C7.59539 7.94625 7.62922 7.93272 7.66 7.91371L10.6667 6.24704V8.66704ZM7.33333 6.57371L2.70667 4.00038L7.33333 1.42704L11.96 4.00038L7.33333 6.57371Z" fill="#000"/>
</svg>
