<svg width="100" height="100" viewBox="0 0 14 14" fill="none" xmlns="http://www.w3.org/2000/svg">
<path d="M12.2733 9.33967H9.25325C9.07644 9.33967 8.90687 9.40991 8.78185 9.53494C8.65682 9.65996 8.58659 9.82953 8.58659 10.0063C8.58659 10.1832 8.65682 10.3527 8.78185 10.4777C8.90687 10.6028 9.07644 10.673 9.25325 10.673H10.8533C10.1179 11.4415 9.16952 11.9726 8.13003 12.1979C7.09053 12.4233 6.00739 12.3327 5.01977 11.9378C4.03215 11.5429 3.18516 10.8617 2.58765 9.98179C1.99013 9.10184 1.66937 8.06332 1.66659 6.99967C1.66659 6.82286 1.59635 6.65329 1.47132 6.52827C1.3463 6.40325 1.17673 6.33301 0.999919 6.33301C0.823108 6.33301 0.653538 6.40325 0.528514 6.52827C0.40349 6.65329 0.333252 6.82286 0.333252 6.99967C0.336776 8.30154 0.721399 9.57389 1.43965 10.6597C2.15791 11.7455 3.17836 12.5972 4.37508 13.1098C5.5718 13.6224 6.89241 13.7734 8.17393 13.5441C9.45545 13.3148 10.6418 12.7154 11.5866 11.8197V12.9997C11.5866 13.1765 11.6568 13.3461 11.7818 13.4711C11.9069 13.5961 12.0764 13.6663 12.2533 13.6663C12.4301 13.6663 12.5996 13.5961 12.7247 13.4711C12.8497 13.3461 12.9199 13.1765 12.9199 12.9997V9.99967C12.9183 9.82743 12.85 9.66251 12.7295 9.53947C12.6089 9.41644 12.4454 9.34483 12.2733 9.33967ZM6.99992 0.333008C5.29084 0.337883 3.64891 0.99895 2.41325 2.17967V0.999674C2.41325 0.822863 2.34301 0.653294 2.21799 0.52827C2.09297 0.403246 1.9234 0.333008 1.74659 0.333008C1.56977 0.333008 1.40021 0.403246 1.27518 0.52827C1.15016 0.653294 1.07992 0.822863 1.07992 0.999674V3.99967C1.07992 4.17649 1.15016 4.34605 1.27518 4.47108C1.40021 4.5961 1.56977 4.66634 1.74659 4.66634H4.74659C4.9234 4.66634 5.09297 4.5961 5.21799 4.47108C5.34301 4.34605 5.41325 4.17649 5.41325 3.99967C5.41325 3.82286 5.34301 3.65329 5.21799 3.52827C5.09297 3.40325 4.9234 3.33301 4.74659 3.33301H3.14659C3.88156 2.56492 4.82931 2.03401 5.86818 1.80841C6.90706 1.58282 7.98965 1.67284 8.97699 2.06692C9.96434 2.46099 10.8114 3.14115 11.4094 4.02008C12.0074 4.899 12.3291 5.9366 12.3333 6.99967C12.3333 7.17649 12.4035 7.34606 12.5285 7.47108C12.6535 7.5961 12.8231 7.66634 12.9999 7.66634C13.1767 7.66634 13.3463 7.5961 13.4713 7.47108C13.5963 7.34606 13.6666 7.17649 13.6666 6.99967C13.6666 6.1242 13.4941 5.25729 13.1591 4.44845C12.8241 3.63961 12.333 2.90469 11.714 2.28563C11.0949 1.66657 10.36 1.17551 9.55114 0.840478C8.7423 0.505446 7.8754 0.333008 6.99992 0.333008Z" fill="#000"/>
</svg>
