<svg width="100" height="100" viewBox="0 0 15 15" fill="none" xmlns="http://www.w3.org/2000/svg">
<path d="M13.7537 5.48727L3.25428 0.235769C2.83992 0.029467 2.37204 -0.043978 1.91442 0.0254477C1.45681 0.0948735 1.03174 0.303791 0.697164 0.623717C0.362586 0.943643 0.134785 1.35901 0.0448203 1.81318C-0.0451449 2.26735 0.00710376 2.73823 0.194443 3.16161L1.99434 7.19026C2.03518 7.28766 2.05622 7.39223 2.05622 7.49785C2.05622 7.60347 2.03518 7.70804 1.99434 7.80544L0.194443 11.8341C0.0419759 12.1767 -0.0224789 12.552 0.00693558 12.9259C0.03635 13.2998 0.158701 13.6604 0.36287 13.975C0.567039 14.2895 0.846551 14.5481 1.17601 14.7271C1.50546 14.9061 1.87441 14.9999 2.24933 15C2.60049 14.9965 2.94641 14.9145 3.26178 14.7599L13.7612 9.50843C14.1336 9.32101 14.4467 9.03377 14.6654 8.67875C14.8842 8.32373 15 7.91489 15 7.49785C15 7.08081 14.8842 6.67197 14.6654 6.31695C14.4467 5.96193 14.1336 5.67469 13.7612 5.48727H13.7537ZM13.0862 8.16554L2.58681 13.417C2.44894 13.4833 2.29413 13.5057 2.14313 13.4815C1.99213 13.4572 1.85216 13.3873 1.74199 13.2811C1.63183 13.175 1.55673 13.0377 1.52677 12.8877C1.49681 12.7377 1.51342 12.5821 1.57437 12.4418L3.36677 8.41311C3.38997 8.35932 3.41001 8.30421 3.42677 8.24807H8.59399C8.79289 8.24807 8.98364 8.16903 9.12429 8.02833C9.26493 7.88764 9.34394 7.69682 9.34394 7.49785C9.34394 7.29888 9.26493 7.10806 9.12429 6.96737C8.98364 6.82668 8.79289 6.74764 8.59399 6.74764H3.42677C3.41001 6.6915 3.38997 6.63638 3.36677 6.58259L1.57437 2.55393C1.51342 2.41362 1.49681 2.25801 1.52677 2.10798C1.55673 1.95795 1.63183 1.82068 1.74199 1.71455C1.85216 1.60843 1.99213 1.53854 2.14313 1.51425C2.29413 1.48996 2.44894 1.51243 2.58681 1.57865L13.0862 6.83016C13.2091 6.89312 13.3122 6.98876 13.3842 7.10657C13.4562 7.22438 13.4942 7.35978 13.4942 7.49785C13.4942 7.63593 13.4562 7.77132 13.3842 7.88913C13.3122 8.00694 13.2091 8.10259 13.0862 8.16554Z" fill="#000"/>
</svg>
