<svg width="100" height="100" viewBox="0 0 14 14" fill="none" xmlns="http://www.w3.org/2000/svg">
<path d="M12.2668 7.4396C12.1599 7.31795 12.1009 7.16154 12.1009 6.9996C12.1009 6.83767 12.1599 6.68126 12.2668 6.5596L13.1201 5.5996C13.2141 5.49472 13.2725 5.36274 13.2869 5.22261C13.3013 5.08248 13.2709 4.9414 13.2001 4.8196L11.8668 2.51294C11.7967 2.39129 11.69 2.29486 11.5619 2.2374C11.4338 2.17993 11.2909 2.16438 11.1534 2.19294L9.90009 2.44627C9.74062 2.47922 9.57459 2.45266 9.43335 2.3716C9.29211 2.29055 9.18543 2.16059 9.13343 2.00627L8.72676 0.786271C8.68204 0.653857 8.59683 0.538848 8.48318 0.457499C8.36953 0.376151 8.23319 0.332577 8.09343 0.332938H5.42676C5.28138 0.32535 5.13752 0.365555 5.01714 0.447414C4.89676 0.529272 4.80648 0.648284 4.76009 0.786271L4.38676 2.00627C4.33476 2.16059 4.22808 2.29055 4.08684 2.3716C3.9456 2.45266 3.77957 2.47922 3.62009 2.44627L2.33343 2.19294C2.20313 2.17453 2.07029 2.19509 1.95166 2.25203C1.83302 2.30898 1.73389 2.39976 1.66676 2.51294L0.333427 4.8196C0.260867 4.94004 0.228242 5.08033 0.240215 5.22042C0.252189 5.36051 0.308148 5.49323 0.400094 5.5996L1.24676 6.5596C1.35364 6.68126 1.41258 6.83767 1.41258 6.9996C1.41258 7.16154 1.35364 7.31795 1.24676 7.4396L0.400094 8.3996C0.308148 8.50598 0.252189 8.6387 0.240215 8.77879C0.228242 8.91888 0.260867 9.05917 0.333427 9.17961L1.66676 11.4863C1.73683 11.6079 1.84351 11.7044 1.9716 11.7618C2.09968 11.8193 2.24264 11.8348 2.38009 11.8063L3.63343 11.5529C3.79291 11.52 3.95893 11.5465 4.10017 11.6276C4.24141 11.7087 4.34809 11.8386 4.40009 11.9929L4.80676 13.2129C4.85315 13.3509 4.94342 13.4699 5.0638 13.5518C5.18418 13.6337 5.32805 13.6739 5.47343 13.6663H8.14009C8.27986 13.6666 8.4162 13.6231 8.52985 13.5417C8.6435 13.4604 8.7287 13.3454 8.77343 13.2129L9.18009 11.9929C9.23209 11.8386 9.33878 11.7087 9.48002 11.6276C9.62126 11.5465 9.78728 11.52 9.94676 11.5529L11.2001 11.8063C11.3375 11.8348 11.4805 11.8193 11.6086 11.7618C11.7367 11.7044 11.8434 11.6079 11.9134 11.4863L13.2468 9.17961C13.3175 9.05781 13.3479 8.91673 13.3336 8.7766C13.3192 8.63647 13.2608 8.50449 13.1668 8.3996L12.2668 7.4396ZM11.2734 8.33294L11.8068 8.93294L10.9534 10.4129L10.1668 10.2529C9.68661 10.1548 9.18714 10.2364 8.76316 10.4821C8.33917 10.7279 8.02019 11.1208 7.86676 11.5863L7.61343 12.3329H5.90676L5.66676 11.5729C5.51333 11.1075 5.19435 10.7146 4.77036 10.4688C4.34638 10.223 3.84691 10.1415 3.36676 10.2396L2.58009 10.3996L1.71343 8.92627L2.24676 8.32627C2.57473 7.95959 2.75605 7.48489 2.75605 6.99294C2.75605 6.50098 2.57473 6.02629 2.24676 5.6596L1.71343 5.0596L2.56676 3.59294L3.35343 3.75294C3.83357 3.85109 4.33305 3.76953 4.75703 3.52374C5.18101 3.27795 5.5 2.88504 5.65343 2.4196L5.90676 1.66627H7.61343L7.86676 2.42627C8.02019 2.89171 8.33917 3.28462 8.76316 3.5304C9.18714 3.77619 9.68661 3.85775 10.1668 3.7596L10.9534 3.5996L11.8068 5.0796L11.2734 5.67961C10.9491 6.04544 10.7701 6.51739 10.7701 7.00627C10.7701 7.49515 10.9491 7.9671 11.2734 8.33294ZM6.76009 4.33294C6.23268 4.33294 5.7171 4.48934 5.27857 4.78235C4.84004 5.07537 4.49825 5.49185 4.29641 5.97912C4.09458 6.46638 4.04177 7.00256 4.14467 7.51985C4.24756 8.03713 4.50154 8.51228 4.87448 8.88522C5.24742 9.25816 5.72257 9.51214 6.23985 9.61503C6.75714 9.71793 7.29331 9.66512 7.78058 9.46328C8.26785 9.26145 8.68433 8.91966 8.97735 8.48112C9.27036 8.04259 9.42676 7.52702 9.42676 6.9996C9.42676 6.29236 9.14581 5.61408 8.64571 5.11399C8.14561 4.61389 7.46734 4.33294 6.76009 4.33294ZM6.76009 8.33294C6.49639 8.33294 6.2386 8.25474 6.01933 8.10823C5.80007 7.96172 5.62917 7.75348 5.52825 7.50985C5.42734 7.26621 5.40093 6.99813 5.45238 6.73948C5.50383 6.48084 5.63081 6.24327 5.81728 6.0568C6.00375 5.87033 6.24133 5.74334 6.49997 5.69189C6.75862 5.64044 7.0267 5.66685 7.27034 5.76777C7.51397 5.86868 7.72221 6.03958 7.86872 6.25884C8.01523 6.47811 8.09343 6.7359 8.09343 6.9996C8.09343 7.35323 7.95295 7.69237 7.7029 7.94241C7.45285 8.19246 7.11372 8.33294 6.76009 8.33294Z" fill="#000"/>
</svg>
