<svg width="100" height="100" viewBox="0 0 14 14" fill="none" xmlns="http://www.w3.org/2000/svg">
<path d="M7.0002 0.333008C5.70718 0.335465 4.44278 0.713882 3.36101 1.42217C2.27925 2.13045 1.42679 3.13803 0.907489 4.32219C0.388186 5.50634 0.224446 6.81595 0.436213 8.09151C0.64798 9.36707 1.22611 10.5535 2.1002 11.5063C2.72448 12.183 3.48216 12.7231 4.32549 13.0925C5.16882 13.4619 6.07952 13.6526 7.0002 13.6526C7.92087 13.6526 8.83157 13.4619 9.6749 13.0925C10.5182 12.7231 11.2759 12.183 11.9002 11.5063C12.7743 10.5535 13.3524 9.36707 13.5642 8.09151C13.7759 6.81595 13.6122 5.50634 13.0929 4.32219C12.5736 3.13803 11.7211 2.13045 10.6394 1.42217C9.55761 0.713882 8.29321 0.335465 7.0002 0.333008ZM7.0002 12.333C5.61917 12.3309 4.29281 11.7932 3.3002 10.833C3.60156 10.0994 4.11422 9.47187 4.77303 9.03027C5.43184 8.58866 6.20707 8.35288 7.0002 8.35288C7.79332 8.35288 8.56855 8.58866 9.22736 9.03027C9.88617 9.47187 10.3988 10.0994 10.7002 10.833C9.70758 11.7932 8.38122 12.3309 7.0002 12.333ZM5.66686 5.66634C5.66686 5.40263 5.74506 5.14485 5.89157 4.92558C6.03808 4.70632 6.24632 4.53542 6.48995 4.4345C6.73359 4.33358 7.00167 4.30718 7.26031 4.35863C7.51896 4.41007 7.75653 4.53706 7.943 4.72353C8.12947 4.91 8.25646 5.14758 8.30791 5.40622C8.35936 5.66486 8.33295 5.93295 8.23203 6.17659C8.13112 6.42022 7.96022 6.62846 7.74095 6.77497C7.52169 6.92148 7.2639 6.99967 7.0002 6.99967C6.64657 6.99967 6.30743 6.8592 6.05739 6.60915C5.80734 6.3591 5.66686 6.01996 5.66686 5.66634ZM11.6069 9.66634C11.0112 8.64751 10.0945 7.85503 9.00019 7.41301C9.33964 7.02811 9.56081 6.55345 9.63718 6.04597C9.71354 5.53849 9.64184 5.01975 9.4307 4.55201C9.21955 4.08426 8.87792 3.68738 8.4468 3.40898C8.01568 3.13059 7.51339 2.98251 7.0002 2.98251C6.487 2.98251 5.98471 3.13059 5.55359 3.40898C5.12247 3.68738 4.78084 4.08426 4.56969 4.55201C4.35855 5.01975 4.28685 5.53849 4.36321 6.04597C4.43958 6.55345 4.66075 7.02811 5.0002 7.41301C3.90593 7.85503 2.98917 8.64751 2.39353 9.66634C1.91882 8.85774 1.66801 7.93732 1.66686 6.99967C1.66686 5.58519 2.22877 4.22863 3.22896 3.22844C4.22915 2.22824 5.58571 1.66634 7.0002 1.66634C8.41468 1.66634 9.77124 2.22824 10.7714 3.22844C11.7716 4.22863 12.3335 5.58519 12.3335 6.99967C12.3324 7.93732 12.0816 8.85774 11.6069 9.66634Z" fill="#000"/>
</svg>
