<svg width="100" height="100" viewBox="0 0 14 8" fill="none" xmlns="http://www.w3.org/2000/svg">
<path d="M13.3533 0.766667C13.2519 0.708155 13.1369 0.677351 13.0199 0.677351C12.9029 0.677351 12.7879 0.708155 12.6866 0.766667L10.3333 1.92667C10.3143 1.40905 10.0952 0.918982 9.72216 0.559626C9.34912 0.20027 8.85122 -0.00034785 8.33325 4.52771e-07H2.33325C1.80282 4.52771e-07 1.29411 0.210714 0.919038 0.585787C0.543966 0.96086 0.333252 1.46957 0.333252 2V6C0.333252 6.53043 0.543966 7.03914 0.919038 7.41421C1.29411 7.78929 1.80282 8 2.33325 8H8.33325C8.85122 8.00035 9.34912 7.79973 9.72216 7.44037C10.0952 7.08102 10.3143 6.59095 10.3333 6.07333L12.7066 7.26C12.7975 7.30659 12.8978 7.33168 12.9999 7.33333C13.1247 7.33373 13.2472 7.29909 13.3533 7.23333C13.4493 7.17329 13.5285 7.08975 13.5833 6.9906C13.6382 6.89145 13.6668 6.77996 13.6666 6.66667V1.33333C13.6668 1.22004 13.6382 1.10855 13.5833 1.0094C13.5285 0.910255 13.4493 0.826714 13.3533 0.766667ZM8.99992 6C8.99992 6.17681 8.92968 6.34638 8.80466 6.4714C8.67963 6.59643 8.51006 6.66667 8.33325 6.66667H2.33325C2.15644 6.66667 1.98687 6.59643 1.86185 6.4714C1.73682 6.34638 1.66659 6.17681 1.66659 6V2C1.66659 1.82319 1.73682 1.65362 1.86185 1.5286C1.98687 1.40357 2.15644 1.33333 2.33325 1.33333H8.33325C8.51006 1.33333 8.67963 1.40357 8.80466 1.5286C8.92968 1.65362 8.99992 1.82319 8.99992 2V6ZM12.3333 5.58667L10.3333 4.58667V3.41333L12.3333 2.41333V5.58667Z" fill="#000"/>
</svg>
