<svg width="100" height="100" viewBox="0 0 30 30" fill="none" xmlns="http://www.w3.org/2000/svg">
<path d="M28.5 0H1.5C1.10218 0 0.720644 0.158035 0.43934 0.43934C0.158035 0.720644 0 1.10218 0 1.5V28.5C0 28.8978 0.158035 29.2794 0.43934 29.5607C0.720644 29.842 1.10218 30 1.5 30H28.5C28.8978 30 29.2794 29.842 29.5607 29.5607C29.842 29.2794 30 28.8978 30 28.5V1.5C30 1.10218 29.842 0.720644 29.5607 0.43934C29.2794 0.158035 28.8978 0 28.5 0ZM18 27H3V16.5H18V27ZM18 13.5H3V3H18V13.5ZM27 27H21V3H27V27Z" fill="#000"/>
</svg>
