<svg width="100" height="100" viewBox="0 0 14 14" fill="none" xmlns="http://www.w3.org/2000/svg">
<path d="M12.9999 8.33398H12.3333V1.66732H12.9999C13.1767 1.66732 13.3463 1.59708 13.4713 1.47206C13.5963 1.34703 13.6666 1.17746 13.6666 1.00065C13.6666 0.82384 13.5963 0.654271 13.4713 0.529246C13.3463 0.404222 13.1767 0.333984 12.9999 0.333984H0.999919C0.823108 0.333984 0.653538 0.404222 0.528514 0.529246C0.40349 0.654271 0.333252 0.82384 0.333252 1.00065C0.333252 1.17746 0.40349 1.34703 0.528514 1.47206C0.653538 1.59708 0.823108 1.66732 0.999919 1.66732H1.66659V8.33398H0.999919C0.823108 8.33398 0.653538 8.40422 0.528514 8.52925C0.40349 8.65427 0.333252 8.82384 0.333252 9.00065C0.333252 9.17746 0.40349 9.34703 0.528514 9.47206C0.653538 9.59708 0.823108 9.66732 0.999919 9.66732H6.33325V10.434L3.29992 12.434C3.17547 12.511 3.07984 12.6269 3.02776 12.7636C2.97569 12.9004 2.97007 13.0505 3.01178 13.1908C3.05349 13.3311 3.1402 13.4538 3.25854 13.5399C3.37688 13.626 3.52027 13.6708 3.66659 13.6673C3.79765 13.6688 3.92589 13.6292 4.03325 13.554L6.33325 12.034V13.0007C6.33325 13.1775 6.40349 13.347 6.52851 13.4721C6.65354 13.5971 6.82311 13.6673 6.99992 13.6673C7.17673 13.6673 7.3463 13.5971 7.47132 13.4721C7.59635 13.347 7.66659 13.1775 7.66659 13.0007V12.034L9.96659 13.554C10.0739 13.6292 10.2022 13.6688 10.3333 13.6673C10.4757 13.6662 10.614 13.6195 10.728 13.5341C10.842 13.4487 10.9256 13.329 10.9666 13.1926C11.0076 13.0561 11.0038 12.9102 10.9558 12.7761C10.9078 12.642 10.8181 12.5268 10.6999 12.4473L7.66659 10.4473V9.66732H12.9999C13.1767 9.66732 13.3463 9.59708 13.4713 9.47206C13.5963 9.34703 13.6666 9.17746 13.6666 9.00065C13.6666 8.82384 13.5963 8.65427 13.4713 8.52925C13.3463 8.40422 13.1767 8.33398 12.9999 8.33398ZM10.9999 8.33398H2.99992V1.66732H10.9999V8.33398ZM5.40659 7.17398C5.58427 7.27896 5.78687 7.33434 5.99325 7.33434C6.19963 7.33434 6.40223 7.27896 6.57992 7.17398L8.57992 6.01398C8.7509 5.90904 8.89212 5.76201 8.99008 5.58694C9.08805 5.41187 9.13948 5.2146 9.13948 5.01398C9.13948 4.81337 9.08805 4.6161 8.99008 4.44103C8.89212 4.26596 8.7509 4.11893 8.57992 4.01398L6.57992 2.85398C6.40223 2.749 6.19963 2.69363 5.99325 2.69363C5.78687 2.69363 5.58427 2.749 5.40659 2.85398C5.22754 2.95492 5.07911 3.10238 4.97701 3.28076C4.87491 3.45915 4.82293 3.66181 4.82659 3.86732V6.18732C4.8277 6.38831 4.88193 6.58544 4.98379 6.75871C5.08565 6.93199 5.23151 7.07525 5.40659 7.17398ZM6.15992 4.12065L7.66659 5.00065L6.14659 5.88065L6.15992 4.12065Z" fill="#000"/>
</svg>
